<svg width="24" height="14" viewBox="0 0 24 14" fill="none" xmlns="http://www.w3.org/2000/svg">
<path d="M12.75 7C12.75 10.5152 10.0584 13.375 6.75 13.375C3.44156 13.375 0.75 10.5152 0.75 7C0.75 3.48484 3.44156 0.625 6.75 0.625C10.0584 0.625 12.75 3.48484 12.75 7ZM22.5 1C22.3011 1 22.1103 1.07902 21.9697 1.21967C21.829 1.36032 21.75 1.55109 21.75 1.75V12.25C21.75 12.4489 21.829 12.6397 21.9697 12.7803C22.1103 12.921 22.3011 13 22.5 13C22.6989 13 22.8897 12.921 23.0303 12.7803C23.171 12.6397 23.25 12.4489 23.25 12.25V1.75C23.25 1.55109 23.171 1.36032 23.0303 1.21967C22.8897 1.07902 22.6989 1 22.5 1ZM17.25 1C16.7172 1 15.7125 1.25875 14.9696 2.99228C14.5056 4.07509 14.25 5.49841 14.25 7C14.25 8.50159 14.5056 9.925 14.9696 11.0077C15.7126 12.7412 16.7172 13 17.25 13C17.7828 13 18.7875 12.7412 19.5304 11.0077C19.9944 9.92491 20.25 8.50159 20.25 7C20.25 5.49841 19.9944 4.075 19.5304 2.99228C18.7874 1.25884 17.7828 1 17.25 1Z" fill="#EBEBF5" fill-opacity="0.6"/>
</svg>
