<svg width="22" height="22" viewBox="0 0 22 22" fill="none" xmlns="http://www.w3.org/2000/svg">
<path d="M20.7947 19.2046L16.9812 15.3911C18.387 13.5807 19.05 11.3027 18.8352 9.02069C18.6204 6.7387 17.5441 4.62435 15.8252 3.10807C14.1064 1.59179 11.8742 0.787578 9.5833 0.859167C7.29235 0.930756 5.1148 1.87276 3.49397 3.4934C1.87314 5.11404 0.930876 7.29148 0.859017 9.58242C0.787158 11.8734 1.5911 14.1056 3.10718 15.8246C4.62326 17.5436 6.73749 18.6203 9.01945 18.8353C11.3014 19.0503 13.5795 18.3876 15.39 16.982L19.2037 20.7956C19.3078 20.9014 19.4319 20.9856 19.5688 21.0433C19.7056 21.101 19.8526 21.131 20.0011 21.1316C20.1496 21.1322 20.2967 21.1034 20.434 21.0468C20.5714 20.9903 20.6961 20.9071 20.8011 20.8021C20.9061 20.6971 20.9893 20.5723 21.0459 20.435C21.1024 20.2977 21.1312 20.1505 21.1306 20.002C21.13 19.8535 21.1 19.7066 21.0424 19.5697C20.9847 19.4329 20.9005 19.3088 20.7946 19.2046H20.7947ZM3.12473 9.875C3.12473 8.53997 3.52061 7.23493 4.26231 6.1249C5.00401 5.01487 6.05821 4.1497 7.29161 3.63881C8.52501 3.12792 9.88221 2.99425 11.1916 3.2547C12.501 3.51515 13.7037 4.15802 14.6477 5.10203C15.5917 6.04603 16.2346 7.24877 16.495 8.55814C16.7555 9.86751 16.6218 11.2247 16.1109 12.4581C15.6 13.6915 14.7349 14.7457 13.6248 15.4874C12.5148 16.2291 11.2098 16.625 9.87473 16.625C8.08513 16.623 6.36941 15.9112 5.10398 14.6457C3.83854 13.3803 3.12674 11.6646 3.12473 9.875Z" fill="#8E8E93"/>
</svg>
